<svg 
class="icon name-text"
width="203" 
height="10" 
viewBox="0 0 203 10" 
fill="none" 
xmlns="http://www.w3.org/2000/svg">
<path d="M3.86403 9.16807C4.84803 9.16807 5.61603 8.79607 6.22803 8.22007C7.41603 7.10407 7.86003 5.06407 7.86003 3.52806C7.86003 1.75206 6.78003 0.336064 4.81203 0.336064C3.82803 0.336064 3.07203 0.708065 2.44803 1.28407C1.24803 2.38807 0.780029 4.44006 0.780029 5.97606C0.780029 7.77606 1.93203 9.16807 3.86403 9.16807ZM3.92403 8.14806C2.50803 8.14806 1.87203 7.15207 1.87203 5.91607C1.87203 4.74006 2.29203 2.89207 3.18003 2.02806C3.57603 1.64406 4.06803 1.35607 4.75203 1.35607C6.15603 1.35607 6.76803 2.35206 6.76803 3.58806C6.76803 4.76406 6.39603 6.62406 5.50803 7.48806C5.11203 7.87206 4.59603 8.14806 3.92403 8.14806Z" fill="white"/>
<path d="M8.83887 9.00006H9.91887L10.5789 5.24406H14.5149L14.6949 4.26007H10.7589L11.2509 1.47606H15.6309L15.7989 0.492064H10.3389L8.83887 9.00006Z" fill="white"/>
<path d="M15.8936 9.00006H16.9736L17.6336 5.24406H21.5696L21.7496 4.26007H17.8136L18.3056 1.47606H22.6856L22.8536 0.492064H17.3936L15.8936 9.00006Z" fill="white"/>
<path d="M22.9482 9.00006H24.0522L25.5522 0.492064H24.4482L22.9482 9.00006Z" fill="white"/>
<path d="M29.6218 9.16807C31.3258 9.16807 32.7058 8.01606 33.0178 6.39606H31.9138C31.6978 7.44006 30.7378 8.14806 29.6818 8.14806C28.4218 8.14806 27.6298 7.34406 27.6298 5.96406C27.6298 4.72806 28.0378 2.90406 28.9258 2.01606C29.3218 1.62006 29.8858 1.34406 30.5818 1.34406C31.7938 1.34406 32.4538 2.10006 32.5018 3.14406V3.24006H33.5938V3.19206C33.5938 1.54806 32.5018 0.324064 30.6058 0.324064C29.6218 0.324064 28.8178 0.696065 28.1938 1.27206C26.9818 2.38807 26.5378 4.46406 26.5378 5.98806C26.5378 7.92006 27.7978 9.16807 29.6218 9.16807Z" fill="white"/>
<path d="M34.2334 9.00006H39.9094L40.0654 8.01606H35.4814L36.0094 5.06406H40.0054L40.1854 4.06806H36.1654L36.6334 1.47606H41.1694L41.3374 0.492064H35.7214L34.2334 9.00006Z" fill="white"/>
<path d="M44.9922 0.492064V9.00006H46.0602V5.25606H49.9002V4.24806H46.0602V1.47606H50.3802V0.492064H44.9922Z" fill="white"/>
<path d="M54.9196 9.16807C55.9036 9.16807 56.7556 8.83206 57.3916 8.17206C58.2676 7.26006 58.4716 6.13206 58.4716 4.75206C58.4716 3.37206 58.2676 2.24406 57.3916 1.33206C56.7556 0.672065 55.9036 0.324064 54.9196 0.324064C53.9356 0.324064 53.0836 0.672065 52.4476 1.33206C51.5716 2.24406 51.3676 3.37206 51.3676 4.75206C51.3676 6.13206 51.5716 7.26006 52.4476 8.17206C53.0836 8.83206 53.9356 9.16807 54.9196 9.16807ZM54.9196 8.14806C54.1876 8.14806 53.6116 7.89606 53.1796 7.42806C52.5316 6.70806 52.4716 5.71206 52.4716 4.75206C52.4716 3.79206 52.5316 2.79606 53.1796 2.07606C53.6116 1.60806 54.1876 1.34406 54.9196 1.34406C55.6516 1.34406 56.2276 1.60806 56.6596 2.07606C57.3076 2.79606 57.3676 3.79206 57.3676 4.75206C57.3676 5.71206 57.3076 6.70806 56.6596 7.42806C56.2276 7.89606 55.6516 8.14806 54.9196 8.14806Z" fill="white"/>
<path d="M60.3203 0.492064V9.00006H61.3883V5.46006H63.5963L65.3003 9.00006H66.5003L64.6763 5.28006C65.8643 4.93206 66.4883 4.05606 66.4883 2.97606C66.4883 1.42806 65.3843 0.492064 63.6563 0.492064H60.3203ZM63.6563 4.46406H61.3883V1.47606H63.6563C64.6643 1.47606 65.3843 1.89607 65.3843 2.97606C65.3843 4.05606 64.6643 4.46406 63.6563 4.46406Z" fill="white"/>
<path d="M70.9221 0.492064V9.00006H72.4701V5.58006H76.2141V4.17606H72.4701V1.89606H76.6821V0.492064H70.9221Z" fill="white"/>
<path d="M81.3225 9.16807C83.4345 9.16807 84.6585 7.96806 84.6585 5.94006V0.492064H83.1105V5.85606C83.1105 7.06806 82.5345 7.76406 81.3225 7.76406C80.1105 7.76406 79.5345 7.06806 79.5345 5.85606V0.492064H77.9865V5.94006C77.9865 7.96806 79.2105 9.16807 81.3225 9.16807Z" fill="white"/>
<path d="M88.3781 1.93206V9.00006H89.9261V1.93206H92.5661V0.492064H85.7381V1.93206H88.3781Z" fill="white"/>
<path d="M96.9788 9.16807C99.0908 9.16807 100.315 7.96806 100.315 5.94006V0.492064H98.7668V5.85606C98.7668 7.06806 98.1908 7.76406 96.9788 7.76406C95.7668 7.76406 95.1908 7.06806 95.1908 5.85606V0.492064H93.6428V5.94006C93.6428 7.96806 94.8668 9.16807 96.9788 9.16807Z" fill="white"/>
<path d="M102.246 0.492064V9.00006H103.806V5.78407H105.642L107.022 9.00006H108.726L107.166 5.52006C108.15 5.17206 108.786 4.27207 108.786 3.13207C108.786 1.76406 107.862 0.492064 105.834 0.492064H102.246ZM105.822 4.39207H103.794V1.84806H105.834C106.734 1.84806 107.238 2.42406 107.238 3.10806C107.238 3.91206 106.734 4.39207 105.822 4.39207Z" fill="white"/>
<path d="M110.332 0.492064V9.00006H116.272V7.59606H111.88V5.26806H115.732V3.87607H111.88V1.89606H116.272V0.492064H110.332Z" fill="white"/>
<path d="M120.625 0.492064V9.00006H121.693V5.25606H125.533V4.24806H121.693V1.47606H126.013V0.492064H120.625Z" fill="white"/>
<path d="M130.502 9.15606C132.386 9.15606 133.61 8.07607 133.61 6.01206V0.492064H132.542V5.94006C132.542 7.27206 131.978 8.16006 130.502 8.16006C129.026 8.16006 128.462 7.27206 128.462 5.94006V0.492064H127.394V6.01206C127.394 8.07607 128.618 9.15606 130.502 9.15606Z" fill="white"/>
<path d="M135.73 0.492064V9.00006H136.798V5.46006H139.006L140.71 9.00006H141.91L140.086 5.28006C141.274 4.93206 141.898 4.05606 141.898 2.97606C141.898 1.42806 140.794 0.492064 139.066 0.492064H135.73ZM139.066 4.46406H136.798V1.47606H139.066C140.074 1.47606 140.794 1.89607 140.794 2.97606C140.794 4.05606 140.074 4.46406 139.066 4.46406Z" fill="white"/>
<path d="M149.099 0.492064V7.36806L145.127 0.492064H143.723V9.00006H144.755V1.76406L148.931 9.00006H150.131V0.492064H149.099Z" fill="white"/>
<path d="M152.453 0.492064V9.00006H153.545V0.492064H152.453Z" fill="white"/>
<path d="M158.527 9.16807C160.219 9.16807 161.659 8.20806 161.659 6.67206C161.659 5.32806 160.711 4.46407 159.295 4.24806L157.879 4.03206C157.243 3.93606 156.607 3.60006 156.607 2.80806C156.607 1.88406 157.411 1.30806 158.467 1.30806C159.619 1.30806 160.327 1.94407 160.387 2.97606H161.503C161.455 1.38006 160.135 0.324064 158.479 0.324064C156.919 0.324064 155.503 1.39207 155.503 2.85607C155.503 4.21207 156.475 4.92006 157.771 5.11206L159.115 5.31606C160.111 5.47206 160.543 6.02406 160.543 6.67206C160.543 7.63206 159.691 8.18406 158.527 8.18406C157.267 8.18406 156.319 7.44007 156.295 6.31207H155.179C155.179 8.02807 156.607 9.16807 158.527 9.16807Z" fill="white"/>
<path d="M163.375 0.492064V9.00006H164.443V5.10006H168.523V9.00006H169.591V0.492064H168.523V4.06806H164.443V0.492064H163.375Z" fill="white"/>
<path d="M171.918 0.492064V9.00006H173.01V0.492064H171.918Z" fill="white"/>
<path d="M180.716 0.492064V7.36806L176.744 0.492064H175.34V9.00006H176.372V1.76406L180.548 9.00006H181.748V0.492064H180.716Z" fill="white"/>
<path d="M187.226 9.16807C188.318 9.16807 189.314 8.55606 189.59 7.78806L189.71 9.00006H190.538V4.59606H186.938V5.59206H189.566V5.65206C189.566 7.20006 188.738 8.16006 187.262 8.16006C186.638 8.16006 186.038 7.96806 185.57 7.51206C184.826 6.79206 184.694 5.59206 184.694 4.75206C184.694 3.86406 184.826 2.73606 185.558 2.01606C185.99 1.59606 186.542 1.34406 187.19 1.34406C188.018 1.34406 188.534 1.57206 188.918 1.98006C189.182 2.26806 189.338 2.67607 189.374 3.10806H190.514C190.502 2.46007 190.238 1.82406 189.842 1.38006C189.23 0.696064 188.378 0.324064 187.19 0.324064C186.29 0.324064 185.462 0.660064 184.826 1.26006C183.866 2.16006 183.578 3.39606 183.578 4.75206C183.578 6.26406 183.902 7.44006 184.79 8.28006C185.45 8.90406 186.326 9.16807 187.226 9.16807Z" fill="white"/>
<path d="M194.745 0.360065H197.325V0.900065L196.329 0.888064V4.68007H195.729V0.888064L194.745 0.900065V0.360065ZM198.045 0.216064H198.237L199.581 3.16806L199.653 3.34806L199.677 3.40807C199.725 3.52806 199.749 3.66406 199.749 3.81607L199.761 3.63606L199.833 3.39606L199.869 3.31206L199.929 3.16806L201.273 0.216064H201.465L202.329 4.68007H201.717L201.261 2.07606L201.237 1.92006L201.225 1.87206V1.68006L201.237 1.48806L201.189 1.65606L201.129 1.86006L201.081 2.00406L201.057 2.05206L199.821 4.80007H199.689L198.453 2.05206L198.417 1.98006L198.381 1.86006L198.273 1.48806L198.285 1.72806V1.87206L198.273 1.92006L198.249 2.07606L197.793 4.68007H197.181L198.045 0.216064Z" fill="white"/>
</svg>
